<svg width="164" xmlns="http://www.w3.org/2000/svg" id="Calque_1" data-name="Calque 1" version="1.1" viewBox="0 0 1700.79 566.93"><defs id="defs1"><style id="style1">.cls-2{fill:#fff}</style></defs><rect id="rect12" width="1430.913" height="266.41" x="134.939" y="144.36" ry="133.205" style="opacity:1;fill:#000;fill-opacity:1;stroke:#1d1d1b;stroke-width:0;stroke-linecap:square;stroke-linejoin:round;stroke-dasharray:none;stroke-opacity:1;paint-order:fill markers stroke"/><text xml:space="preserve" id="text12" x="539.127" y="323.503" style="font-style:normal;font-variant:normal;font-weight:900;font-stretch:normal;font-size:123.324px;line-height:1.4;font-family:&quot;DM Sans&quot;;-inkscape-font-specification:&quot;DM Sans Heavy&quot;;text-decoration-color:#000;letter-spacing:20.23px;word-spacing:0;writing-mode:lr-tb;direction:ltr;white-space:pre;fill:#fff;fill-opacity:1;stroke:#fff;stroke-width:8.47;stroke-linecap:square;stroke-linejoin:round;stroke-dasharray:none;stroke-opacity:1;paint-order:fill markers stroke"><tspan id="tspan12" x="539.127" y="323.503" style="letter-spacing:20.23px;fill:#fff;fill-opacity:1;stroke:#fff;stroke-width:8.47;stroke-dasharray:none;stroke-opacity:1">IN THE LOOP</tspan></text><g id="g11-7" transform="translate(-88.018 .88)"><path id="path10-1" d="M349.9 341c-.98 0-1.87-.4-2.66-1.19-.8-.79-1.19-1.68-1.19-2.66 0-.61.06-1.16.18-1.65l43.18-117.96c.37-1.35 1.13-2.54 2.3-3.58 1.16-1.04 2.78-1.56 4.87-1.56h27.19c2.08 0 3.7.52 4.87 1.56 1.16 1.04 1.93 2.24 2.3 3.58l42.99 117.96c.24.49.37 1.04.37 1.65 0 .98-.4 1.87-1.19 2.66-.8.8-1.75 1.19-2.85 1.19h-22.6c-1.84 0-3.22-.46-4.13-1.38-.92-.92-1.5-1.75-1.75-2.48l-7.17-18.74h-49.06l-6.98 18.74c-.25.74-.8 1.56-1.65 2.48-.86.92-2.33 1.38-4.41 1.38h-22.6zm43.18-49.06h34.18l-17.27-48.51-16.9 48.51z" class="cls-2" style="fill:#fff"/><path id="path11-7" d="M493.39 341c-1.35 0-2.45-.43-3.31-1.29-.86-.86-1.29-1.96-1.29-3.31V216.97c0-1.35.43-2.45 1.29-3.31.86-.86 1.96-1.29 3.31-1.29h24.62c1.35 0 2.45.43 3.31 1.29.86.86 1.29 1.96 1.29 3.31V336.4c0 1.35-.43 2.45-1.29 3.31-.86.86-1.96 1.29-3.31 1.29z" class="cls-2" style="fill:#fff"/></g></svg>